<svg width="19" height="20" viewBox="0 0 19 20" fill="none" xmlns="http://www.w3.org/2000/svg">
<path d="M5.49798 1.84299C5.67644 1.84299 5.85165 1.89075 6.00542 1.98131C6.15919 2.07186 6.28593 2.20192 6.37248 2.35799L7.59548 4.56099C7.67434 4.70309 7.71738 4.86228 7.72086 5.02476C7.72434 5.18725 7.68818 5.34813 7.61548 5.49349L6.43748 7.85049C6.43748 7.85049 6.77898 9.60599 8.20798 11.0355C9.63748 12.4645 11.387 12.8005 11.387 12.8005L13.7435 11.622C13.8889 11.5492 14.0499 11.513 14.2125 11.5165C14.375 11.52 14.5343 11.563 14.6765 11.642L16.8865 12.871C17.0422 12.9577 17.1719 13.0844 17.2622 13.2381C17.3525 13.3918 17.4 13.5668 17.4 13.745V16.2815C17.4 17.5735 16.2 18.5065 14.976 18.0935C12.462 17.245 8.55948 15.63 6.08598 13.1565C3.61298 10.683 1.99748 6.78099 1.14948 4.26649C0.736483 3.04299 1.66948 1.84299 2.96148 1.84299H5.49748H5.49798Z" stroke="#161D6F" stroke-width="2" stroke-linejoin="round"/>
</svg>
